<?xml version="1.0" encoding="utf-8"?>
<!-- Generator: Adobe Illustrator 20.1.0, SVG Export Plug-In . SVG Version: 6.00 Build 0)  -->
<svg version="1.1" id="Слой_1" xmlns="http://www.w3.org/2000/svg" xmlns:xlink="http://www.w3.org/1999/xlink" x="0px" y="0px"
	 viewBox="0 0 646.5 571.5" style="enable-background:new 0 0 646.5 571.5;" xml:space="preserve">
<style type="text/css">
	.st0{fill:#007bff;stroke:#FFFFFF;stroke-width:16;stroke-miterlimit:10;}
</style>
<rect x="-36.1" y="-72.6" class="st0" width="718.7" height="718.7"/>
<path class="st0" d="M21.1,338.9L21.1,338.9c-0.5-98.9,79.5-179.3,178.3-179.3h20.3l70.9,179.3H21.1z"/>
<rect x="20.1" y="338.9" class="st0" width="611.5" height="58.1"/>
<polygon class="st0" points="314.2,338.9 222.1,106.5 631.6,106.5 631.6,338.9 "/>
<circle class="st0" cx="109.4" cy="457.7" r="60.7"/>
<circle class="st0" cx="561.9" cy="457.7" r="60.7"/>
<circle class="st0" cx="409.3" cy="457.7" r="60.7"/>
<path class="st0" d="M139.9,233.1h61.9l23.6,53.6H86.3v0C86.3,257.1,110.3,233.1,139.9,233.1z"/>
<circle class="st0" cx="109.9" cy="457.7" r="23.6"/>
<circle class="st0" cx="409.3" cy="457.7" r="23.6"/>
<circle class="st0" cx="561.9" cy="457.7" r="23.6"/>
</svg>
